<?xml version="1.0" encoding="UTF-8"?>
<svg xmlns="http://www.w3.org/2000/svg" width="1200" height="700" viewBox="0 0 1200 700">
  <rect x="0" y="0" width="1200" height="700" fill="white" />
  <rect x="80" y="60" width="1080" height="560" fill="none" stroke="black" />
  <line x1="80" y1="565.93" x2="1160" y2="565.93" stroke="forestgreen" stroke-width="1"/>
<line x1="80" y1="594.55" x2="1160" y2="594.55" stroke="firebrick" stroke-width="1"/>

  <polyline points="80.00,592.86 86.03,591.29 92.07,588.38 98.10,581.00 104.13,580.60 110.17,576.91 116.20,577.93 122.23,584.00 128.27,575.76 134.30,576.45 140.34,570.07 146.37,574.79 152.40,571.95 158.44,573.65 164.47,574.82 170.50,576.50 176.54,551.15 182.57,552.55 188.60,547.78 194.64,553.62 200.67,546.39 206.70,547.52 212.74,549.51 218.77,552.09 224.80,560.97 230.84,554.38 236.87,564.54 242.91,559.23 248.94,556.32 254.97,553.16 261.01,556.01 267.04,551.97 273.07,551.50 279.11,549.22 285.14,554.62 291.17,551.45 297.21,552.75 303.24,547.35 309.27,541.04 315.31,541.89 321.34,549.72 327.37,546.61 333.41,535.26 339.44,537.97 345.47,524.29 351.51,530.49 357.54,528.76 363.58,530.84 369.61,537.27 375.64,542.04 381.68,543.50 387.71,542.05 393.74,536.05 399.78,536.94 405.81,538.20 411.84,529.68 417.88,527.81 423.91,519.60 429.94,517.96 435.98,510.03 442.01,503.21 448.04,501.81 454.08,495.55 460.11,484.74 466.15,471.61 472.18,461.85 478.21,446.99 484.25,446.30 490.28,436.20 496.31,443.09 502.35,431.55 508.38,434.21 514.41,430.38 520.45,433.69 526.48,426.81 532.51,424.79 538.55,417.30 544.58,421.31 550.61,415.47 556.65,412.25 562.68,411.70 568.72,411.73 574.75,411.79 580.78,406.99 586.82,409.19 592.85,406.42 598.88,391.24 604.92,391.38 610.95,386.51 616.98,377.95 623.02,366.55 629.05,364.25 635.08,366.80 641.12,367.32 647.15,369.63 653.18,370.50 659.22,364.20 665.25,365.04 671.28,360.35 677.32,363.57 683.35,372.75 689.39,374.33 695.42,370.90 701.45,366.86 707.49,361.61 713.52,352.97 719.55,354.39 725.59,346.71 731.62,341.89 737.65,342.78 743.69,344.92 749.72,344.00 755.75,338.78 761.79,339.14 767.82,328.68 773.85,315.80 779.89,314.30 785.92,305.96 791.96,309.78 797.99,302.84 804.02,304.29 810.06,300.15 816.09,293.40 822.12,280.73 828.16,278.35 834.19,275.14 840.22,265.29 846.26,252.62 852.29,248.04 858.32,252.50 864.36,243.46 870.39,233.41 876.42,229.72 882.46,220.08 888.49,218.28 894.53,214.98 900.56,211.62 906.59,212.90 912.63,206.90 918.66,203.34 924.69,201.59 930.73,196.97 936.76,186.04 942.79,188.71 948.83,183.85 954.86,173.23 960.89,176.00 966.93,174.64 972.96,169.83 978.99,173.75 985.03,179.58 991.06,188.82 997.09,188.69 1003.13,189.39 1009.16,187.72 1015.20,173.06 1021.23,168.92 1027.26,164.97 1033.30,160.16 1039.33,168.99 1045.36,156.67 1051.40,149.30 1057.43,145.57 1063.46,144.28 1069.50,146.61 1075.53,136.60 1081.56,135.02 1087.60,137.35 1093.63,126.09 1099.66,116.41 1105.70,113.30 1111.73,104.36 1117.77,105.54 1123.80,104.85 1129.83,106.84 1135.87,99.46 1141.90,94.55 1147.93,93.83 1153.97,90.93 1160.00,88.03" fill="none" stroke="steelblue" stroke-width="2" />
  <circle cx="176.54" cy="551.15" r="6" fill="green" stroke="black" stroke-width="1"/>
<line x1="176.54" y1="551.15" x2="460.11" y2="487.40" stroke="green" stroke-width="2"/>
<circle cx="460.11" cy="487.40" r="6" fill="white" stroke="green" stroke-width="2"/>
<circle cx="466.15" cy="471.61" r="6" fill="green" stroke="black" stroke-width="1"/>
<line x1="466.15" y1="471.61" x2="580.78" y2="407.86" stroke="green" stroke-width="2"/>
<circle cx="580.78" cy="407.86" r="6" fill="white" stroke="green" stroke-width="2"/>
<circle cx="586.82" cy="409.19" r="6" fill="green" stroke="black" stroke-width="1"/>
<line x1="586.82" y1="409.19" x2="725.59" y2="345.44" stroke="green" stroke-width="2"/>
<circle cx="725.59" cy="345.44" r="6" fill="white" stroke="green" stroke-width="2"/>
<circle cx="731.62" cy="341.89" r="6" fill="green" stroke="black" stroke-width="1"/>
<line x1="731.62" y1="341.89" x2="828.16" y2="278.14" stroke="green" stroke-width="2"/>
<circle cx="828.16" cy="278.14" r="6" fill="white" stroke="green" stroke-width="2"/>
<circle cx="834.19" cy="275.14" r="6" fill="green" stroke="black" stroke-width="1"/>
<line x1="834.19" y1="275.14" x2="900.56" y2="211.39" stroke="green" stroke-width="2"/>
<circle cx="900.56" cy="211.39" r="6" fill="white" stroke="green" stroke-width="2"/>
<circle cx="906.59" cy="212.90" r="6" fill="green" stroke="black" stroke-width="1"/>
<line x1="906.59" y1="212.90" x2="1051.40" y2="149.15" stroke="green" stroke-width="2"/>
<circle cx="1051.40" cy="149.15" r="6" fill="white" stroke="green" stroke-width="2"/>
<circle cx="1057.43" cy="145.57" r="6" fill="green" stroke="black" stroke-width="1"/>
<line x1="1057.43" y1="145.57" x2="1160.00" y2="88.03" stroke="green" stroke-width="2"/>
<circle cx="1160.00" cy="88.03" r="6" fill="white" stroke="green" stroke-width="2"/>
  <text x="80" y="640" font-size="16" fill="black">
    Session start: 2025-10-03 09:30:00-04:00
  </text>
  <text x="80" y="665" font-size="16" fill="black">
    Trades: 7 | Profit: 138.05
  </text>
</svg>
