<?xml version="1.0" encoding="UTF-8"?>
<svg xmlns="http://www.w3.org/2000/svg" width="1200" height="700" viewBox="0 0 1200 700">
  <rect x="0" y="0" width="1200" height="700" fill="white" />
  <rect x="80" y="60" width="1080" height="560" fill="none" stroke="black" />
  <line x1="80" y1="85.45" x2="1160" y2="85.45" stroke="forestgreen" stroke-width="1"/>
<line x1="80" y1="118.98" x2="1160" y2="118.98" stroke="firebrick" stroke-width="1"/>

  <polyline points="80.00,101.07 86.03,91.36 92.07,101.86 98.10,101.67 104.13,99.19 110.17,94.75 116.20,99.26 122.23,99.74 128.27,95.19 134.30,92.46 140.34,105.37 146.37,100.40 152.40,96.87 158.44,112.59 164.47,113.81 170.50,120.24 176.54,169.83 182.57,172.88 188.60,194.08 194.64,192.67 200.67,212.12 206.70,215.48 212.74,206.47 218.77,228.61 224.80,234.34 230.84,250.95 236.87,240.20 242.91,240.66 248.94,243.51 254.97,256.09 261.01,250.47 267.04,263.42 273.07,263.99 279.11,273.49 285.14,290.01 291.17,294.63 297.21,295.27 303.24,293.09 309.27,304.56 315.31,309.18 321.34,307.02 327.37,309.06 333.41,307.72 339.44,316.80 345.47,306.20 351.51,306.11 357.54,299.16 363.58,308.03 369.61,314.46 375.64,316.32 381.68,314.21 387.71,317.57 393.74,313.32 399.78,310.00 405.81,309.48 411.84,305.28 417.88,307.28 423.91,323.85 429.94,324.35 435.98,330.20 442.01,361.64 448.04,378.27 454.08,381.02 460.11,381.29 466.15,382.39 472.18,388.19 478.21,387.68 484.25,381.95 490.28,396.47 496.31,401.66 502.35,398.63 508.38,399.34 514.41,405.76 520.45,409.35 526.48,400.63 532.51,401.05 538.55,403.23 544.58,410.71 550.61,409.83 556.65,408.49 562.68,403.94 568.72,405.41 574.75,418.19 580.78,406.23 586.82,407.63 592.85,403.32 598.88,403.53 604.92,408.46 610.95,405.89 616.98,409.59 623.02,402.60 629.05,410.46 635.08,417.28 641.12,413.02 647.15,423.18 653.18,417.82 659.22,436.83 665.25,441.84 671.28,441.64 677.32,438.37 683.35,444.02 689.39,436.53 695.42,429.30 701.45,434.73 707.49,420.89 713.52,433.08 719.55,443.23 725.59,444.79 731.62,455.90 737.65,461.16 743.69,447.40 749.72,446.69 755.75,445.45 761.79,455.36 767.82,462.72 773.85,469.43 779.89,467.12 785.92,462.56 791.96,447.06 797.99,442.01 804.02,442.23 810.06,445.32 816.09,444.00 822.12,440.17 828.16,451.01 834.19,444.67 840.22,438.44 846.26,446.80 852.29,450.92 858.32,458.54 864.36,467.61 870.39,466.31 876.42,473.65 882.46,473.49 888.49,463.39 894.53,471.16 900.56,470.81 906.59,487.90 912.63,489.49 918.66,488.22 924.69,495.23 930.73,478.10 936.76,497.41 942.79,502.24 948.83,491.12 954.86,498.19 960.89,501.97 966.93,502.70 972.96,499.58 978.99,490.12 985.03,494.78 991.06,493.34 997.09,490.69 1003.13,482.42 1009.16,489.87 1015.20,488.07 1021.23,502.36 1027.26,511.50 1033.30,523.78 1039.33,519.43 1045.36,522.25 1051.40,516.95 1057.43,501.31 1063.46,507.57 1069.50,512.85 1075.53,509.63 1081.56,527.21 1087.60,535.16 1093.63,531.68 1099.66,550.87 1105.70,551.79 1111.73,546.36 1117.77,553.19 1123.80,548.86 1129.83,551.15 1135.87,566.49 1141.90,574.37 1147.93,583.69 1153.97,584.31 1160.00,593.42" fill="none" stroke="steelblue" stroke-width="2" />
  <circle cx="176.54" cy="169.83" r="6" fill="maroon" stroke="black" stroke-width="1"/>
<line x1="176.54" y1="169.83" x2="279.11" y2="272.13" stroke="maroon" stroke-width="2"/>
<circle cx="279.11" cy="272.13" r="6" fill="white" stroke="maroon" stroke-width="2"/>
<circle cx="285.14" cy="290.01" r="6" fill="maroon" stroke="black" stroke-width="1"/>
<line x1="285.14" y1="290.01" x2="490.28" y2="392.31" stroke="maroon" stroke-width="2"/>
<circle cx="490.28" cy="392.31" r="6" fill="white" stroke="maroon" stroke-width="2"/>
<circle cx="496.31" cy="401.66" r="6" fill="maroon" stroke="black" stroke-width="1"/>
<line x1="496.31" y1="401.66" x2="942.79" y2="503.96" stroke="maroon" stroke-width="2"/>
<circle cx="942.79" cy="503.96" r="6" fill="white" stroke="maroon" stroke-width="2"/>
<circle cx="948.83" cy="491.12" r="6" fill="maroon" stroke="black" stroke-width="1"/>
<line x1="948.83" y1="491.12" x2="1160.00" y2="593.42" stroke="maroon" stroke-width="2"/>
<circle cx="1160.00" cy="593.42" r="6" fill="white" stroke="maroon" stroke-width="2"/>
  <text x="80" y="640" font-size="16" fill="black">
    Session start: 2025-09-26 09:30:00-04:00
  </text>
  <text x="80" y="665" font-size="16" fill="black">
    Trades: 4 | Profit: 80.00
  </text>
</svg>
