<?xml version="1.0" encoding="UTF-8"?>
<svg xmlns="http://www.w3.org/2000/svg" width="1200" height="700" viewBox="0 0 1200 700">
  <rect x="0" y="0" width="1200" height="700" fill="white" />
  <rect x="80" y="60" width="1080" height="560" fill="none" stroke="black" />
  <line x1="80" y1="538.30" x2="1160" y2="538.30" stroke="forestgreen" stroke-width="1"/>
<line x1="80" y1="594.55" x2="1160" y2="594.55" stroke="firebrick" stroke-width="1"/>

  <polyline points="80.00,570.58 86.03,585.36 92.07,584.06 98.10,585.60 104.13,572.56 110.17,569.74 116.20,567.82 122.23,558.52 128.27,550.86 134.30,558.88 140.34,565.04 146.37,566.23 152.40,572.93 158.44,572.97 164.47,570.99 170.50,559.32 176.54,495.24 182.57,503.14 188.60,494.92 194.64,493.96 200.67,484.23 206.70,493.30 212.74,502.50 218.77,496.63 224.80,501.36 230.84,486.80 236.87,486.40 242.91,488.03 248.94,478.25 254.97,475.77 261.01,483.94 267.04,470.79 273.07,478.51 279.11,483.49 285.14,477.71 291.17,477.61 297.21,488.43 303.24,497.15 309.27,484.21 315.31,488.47 321.34,493.01 327.37,492.90 333.41,475.44 339.44,484.40 345.47,472.92 351.51,477.75 357.54,470.48 363.58,467.80 369.61,466.51 375.64,476.71 381.68,473.93 387.71,450.98 393.74,434.28 399.78,430.48 405.81,443.48 411.84,439.51 417.88,440.68 423.91,436.61 429.94,413.26 435.98,422.41 442.01,421.35 448.04,407.28 454.08,406.28 460.11,426.59 466.15,431.38 472.18,418.50 478.21,408.27 484.25,417.45 490.28,426.62 496.31,438.07 502.35,443.36 508.38,427.47 514.41,434.66 520.45,441.69 526.48,442.51 532.51,443.26 538.55,431.97 544.58,412.18 550.61,433.40 556.65,441.08 562.68,432.31 568.72,410.81 574.75,415.84 580.78,425.59 586.82,424.58 592.85,416.55 598.88,426.04 604.92,430.29 610.95,432.02 616.98,432.88 623.02,416.91 629.05,407.31 635.08,396.32 641.12,410.41 647.15,413.27 653.18,415.16 659.22,400.56 665.25,382.44 671.28,401.65 677.32,384.98 683.35,374.63 689.39,388.52 695.42,378.99 701.45,379.08 707.49,375.75 713.52,367.21 719.55,379.80 725.59,369.63 731.62,349.97 737.65,335.86 743.69,330.73 749.72,327.96 755.75,325.97 761.79,334.34 767.82,306.36 773.85,300.88 779.89,301.14 785.92,295.82 791.96,299.69 797.99,285.56 804.02,305.91 810.06,293.62 816.09,286.82 822.12,267.47 828.16,276.38 834.19,254.26 840.22,240.96 846.26,247.83 852.29,241.37 858.32,227.60 864.36,220.25 870.39,210.52 876.42,210.76 882.46,194.10 888.49,187.20 894.53,194.14 900.56,183.23 906.59,175.10 912.63,186.27 918.66,186.70 924.69,201.94 930.73,196.67 936.76,201.02 942.79,188.62 948.83,175.74 954.86,174.57 960.89,188.20 966.93,183.44 972.96,189.96 978.99,180.35 985.03,186.41 991.06,188.07 997.09,186.52 1003.13,185.01 1009.16,173.97 1015.20,175.15 1021.23,161.64 1027.26,149.60 1033.30,154.86 1039.33,154.70 1045.36,138.92 1051.40,148.79 1057.43,137.35 1063.46,136.50 1069.50,133.18 1075.53,131.50 1081.56,119.33 1087.60,106.96 1093.63,111.94 1099.66,106.79 1105.70,106.46 1111.73,116.85 1117.77,117.51 1123.80,111.19 1129.83,110.25 1135.87,100.47 1141.90,92.15 1147.93,91.53 1153.97,97.50 1160.00,91.13" fill="none" stroke="steelblue" stroke-width="2" />
  <circle cx="176.54" cy="495.24" r="6" fill="green" stroke="black" stroke-width="1"/>
<line x1="176.54" y1="495.24" x2="665.25" y2="377.93" stroke="green" stroke-width="2"/>
<circle cx="665.25" cy="377.93" r="6" fill="white" stroke="green" stroke-width="2"/>
<circle cx="671.28" cy="401.65" r="6" fill="green" stroke="black" stroke-width="1"/>
<line x1="671.28" y1="401.65" x2="804.02" y2="284.34" stroke="green" stroke-width="2"/>
<circle cx="804.02" cy="284.34" r="6" fill="white" stroke="green" stroke-width="2"/>
<circle cx="810.06" cy="293.62" r="6" fill="green" stroke="black" stroke-width="1"/>
<line x1="810.06" y1="293.62" x2="906.59" y2="176.31" stroke="green" stroke-width="2"/>
<circle cx="906.59" cy="176.31" r="6" fill="white" stroke="green" stroke-width="2"/>
<circle cx="912.63" cy="186.27" r="6" fill="green" stroke="black" stroke-width="1"/>
<line x1="912.63" y1="186.27" x2="1160.00" y2="91.13" stroke="green" stroke-width="2"/>
<circle cx="1160.00" cy="91.13" r="6" fill="white" stroke="green" stroke-width="2"/>
  <text x="80" y="640" font-size="16" fill="black">
    Session start: 2025-10-01 09:30:00-04:00
  </text>
  <text x="80" y="665" font-size="16" fill="black">
    Trades: 4 | Profit: 76.22
  </text>
</svg>
