<?xml version="1.0" encoding="UTF-8"?>
<svg xmlns="http://www.w3.org/2000/svg" width="1200" height="700" viewBox="0 0 1200 700">
  <rect x="0" y="0" width="1200" height="700" fill="white" />
  <rect x="80" y="60" width="1080" height="560" fill="none" stroke="black" />
  <line x1="80" y1="85.45" x2="1160" y2="85.45" stroke="forestgreen" stroke-width="1"/>
<line x1="80" y1="113.56" x2="1160" y2="113.56" stroke="firebrick" stroke-width="1"/>

  <polyline points="80.00,96.90 86.03,92.58 92.07,100.14 98.10,104.30 104.13,94.65 110.17,95.34 116.20,89.81 122.23,103.24 128.27,105.04 134.30,105.67 140.34,107.66 146.37,102.86 152.40,91.74 158.44,101.57 164.47,111.71 170.50,110.82 176.54,143.86 182.57,131.67 188.60,145.81 194.64,146.35 200.67,144.26 206.70,159.72 212.74,157.48 218.77,158.83 224.80,151.06 230.84,159.48 236.87,157.99 242.91,165.25 248.94,177.72 254.97,178.86 261.01,181.71 267.04,186.02 273.07,184.28 279.11,185.58 285.14,195.25 291.17,194.87 297.21,185.99 303.24,190.89 309.27,190.76 315.31,191.29 321.34,199.09 327.37,195.03 333.41,198.97 339.44,195.42 345.47,197.56 351.51,215.18 357.54,220.47 363.58,227.83 369.61,225.44 375.64,220.57 381.68,212.60 387.71,222.71 393.74,217.10 399.78,223.67 405.81,220.31 411.84,229.89 417.88,233.58 423.91,233.54 429.94,235.75 435.98,230.71 442.01,240.54 448.04,227.49 454.08,236.36 460.11,231.76 466.15,239.65 472.18,251.25 478.21,250.62 484.25,252.46 490.28,246.99 496.31,234.72 502.35,238.74 508.38,240.77 514.41,242.89 520.45,244.11 526.48,245.92 532.51,248.81 538.55,265.14 544.58,269.17 550.61,279.39 556.65,278.64 562.68,279.15 568.72,290.69 574.75,300.56 580.78,298.06 586.82,296.55 592.85,302.26 598.88,305.48 604.92,305.43 610.95,305.22 616.98,308.08 623.02,304.61 629.05,315.73 635.08,317.87 641.12,320.01 647.15,327.28 653.18,325.38 659.22,327.70 665.25,329.69 671.28,333.00 677.32,336.67 683.35,332.15 689.39,331.11 695.42,325.70 701.45,318.95 707.49,324.21 713.52,322.56 719.55,335.36 725.59,333.26 731.62,330.51 737.65,325.14 743.69,333.66 749.72,345.65 755.75,346.38 761.79,344.50 767.82,348.97 773.85,347.38 779.89,346.56 785.92,346.90 791.96,343.20 797.99,348.21 804.02,352.19 810.06,349.70 816.09,358.73 822.12,360.59 828.16,357.14 834.19,377.22 840.22,375.24 846.26,377.47 852.29,370.14 858.32,370.63 864.36,380.05 870.39,385.15 876.42,389.76 882.46,381.88 888.49,378.66 894.53,368.36 900.56,370.74 906.59,366.64 912.63,359.36 918.66,374.67 924.69,381.12 930.73,387.16 936.76,398.92 942.79,401.50 948.83,404.24 954.86,407.57 960.89,410.72 966.93,412.56 972.96,408.57 978.99,412.69 985.03,427.16 991.06,435.00 997.09,440.39 1003.13,446.70 1009.16,455.52 1015.20,462.96 1021.23,476.60 1027.26,482.50 1033.30,488.21 1039.33,488.61 1045.36,499.43 1051.40,498.15 1057.43,498.58 1063.46,508.09 1069.50,508.24 1075.53,506.26 1081.56,503.98 1087.60,507.45 1093.63,515.22 1099.66,531.64 1105.70,540.39 1111.73,550.86 1117.77,547.44 1123.80,552.02 1129.83,560.09 1135.87,573.63 1141.90,583.51 1147.93,591.13 1153.97,587.13 1160.00,586.16" fill="none" stroke="steelblue" stroke-width="2" />
  <circle cx="176.54" cy="143.86" r="6" fill="maroon" stroke="black" stroke-width="1"/>
<line x1="176.54" y1="143.86" x2="351.51" y2="215.48" stroke="maroon" stroke-width="2"/>
<circle cx="351.51" cy="215.48" r="6" fill="white" stroke="maroon" stroke-width="2"/>
<circle cx="357.54" cy="220.47" r="6" fill="maroon" stroke="black" stroke-width="1"/>
<line x1="357.54" y1="220.47" x2="568.72" y2="292.10" stroke="maroon" stroke-width="2"/>
<circle cx="568.72" cy="292.10" r="6" fill="white" stroke="maroon" stroke-width="2"/>
<circle cx="574.75" cy="300.56" r="6" fill="maroon" stroke="black" stroke-width="1"/>
<line x1="574.75" y1="300.56" x2="834.19" y2="372.19" stroke="maroon" stroke-width="2"/>
<circle cx="834.19" cy="372.19" r="6" fill="white" stroke="maroon" stroke-width="2"/>
<circle cx="840.22" cy="375.24" r="6" fill="maroon" stroke="black" stroke-width="1"/>
<line x1="840.22" y1="375.24" x2="1003.13" y2="446.86" stroke="maroon" stroke-width="2"/>
<circle cx="1003.13" cy="446.86" r="6" fill="white" stroke="maroon" stroke-width="2"/>
<circle cx="1009.16" cy="455.52" r="6" fill="maroon" stroke="black" stroke-width="1"/>
<line x1="1009.16" y1="455.52" x2="1099.66" y2="527.15" stroke="maroon" stroke-width="2"/>
<circle cx="1099.66" cy="527.15" r="6" fill="white" stroke="maroon" stroke-width="2"/>
<circle cx="1105.70" cy="540.39" r="6" fill="maroon" stroke="black" stroke-width="1"/>
<line x1="1105.70" y1="540.39" x2="1160.00" y2="586.16" stroke="maroon" stroke-width="2"/>
<circle cx="1160.00" cy="586.16" r="6" fill="white" stroke="maroon" stroke-width="2"/>
  <text x="80" y="640" font-size="16" fill="black">
    Session start: 2025-10-06 09:30:00-04:00
  </text>
  <text x="80" y="665" font-size="16" fill="black">
    Trades: 6 | Profit: 112.78
  </text>
</svg>
