<?xml version="1.0" encoding="UTF-8"?>
<svg xmlns="http://www.w3.org/2000/svg" width="1200" height="700" viewBox="0 0 1200 700">
  <rect x="0" y="0" width="1200" height="700" fill="white" />
  <rect x="80" y="60" width="1080" height="560" fill="none" stroke="black" />
  <line x1="80" y1="85.45" x2="1160" y2="85.45" stroke="forestgreen" stroke-width="1"/>
<line x1="80" y1="119.17" x2="1160" y2="119.17" stroke="firebrick" stroke-width="1"/>

  <polyline points="80.00,100.48 86.03,101.75 92.07,100.17 98.10,112.23 104.13,110.83 110.17,102.14 116.20,104.27 122.23,109.62 128.27,94.05 134.30,93.75 140.34,89.38 146.37,91.97 152.40,97.01 158.44,99.63 164.47,100.12 170.50,94.43 176.54,153.84 182.57,164.42 188.60,174.78 194.64,176.95 200.67,164.61 206.70,170.69 212.74,183.60 218.77,184.28 224.80,184.56 230.84,175.10 236.87,172.84 242.91,168.45 248.94,175.98 254.97,183.83 261.01,189.50 267.04,196.23 273.07,192.20 279.11,190.32 285.14,194.62 291.17,204.29 297.21,195.21 303.24,194.43 309.27,199.97 315.31,205.33 321.34,210.17 327.37,202.94 333.41,201.92 339.44,215.14 345.47,213.12 351.51,224.76 357.54,225.14 363.58,239.77 369.61,254.54 375.64,250.39 381.68,252.69 387.71,262.06 393.74,265.09 399.78,271.45 405.81,271.92 411.84,274.80 417.88,284.19 423.91,294.68 429.94,299.78 435.98,300.88 442.01,296.10 448.04,300.06 454.08,318.07 460.11,321.57 466.15,316.49 472.18,314.33 478.21,321.98 484.25,319.74 490.28,338.76 496.31,344.03 502.35,342.98 508.38,354.08 514.41,367.02 520.45,374.66 526.48,375.14 532.51,373.66 538.55,360.00 544.58,378.80 550.61,385.74 556.65,378.45 562.68,382.14 568.72,389.19 574.75,389.50 580.78,393.85 586.82,392.99 592.85,407.07 598.88,409.88 604.92,400.76 610.95,396.62 616.98,409.27 623.02,398.50 629.05,386.25 635.08,382.96 641.12,374.40 647.15,391.21 653.18,392.54 659.22,395.06 665.25,410.64 671.28,398.54 677.32,406.49 683.35,422.07 689.39,429.27 695.42,439.16 701.45,432.34 707.49,446.24 713.52,439.56 719.55,438.21 725.59,444.23 731.62,445.87 737.65,450.93 743.69,455.50 749.72,465.53 755.75,454.31 761.79,452.53 767.82,455.97 773.85,453.58 779.89,447.86 785.92,444.65 791.96,451.40 797.99,454.27 804.02,445.86 810.06,450.64 816.09,454.98 822.12,456.13 828.16,463.77 834.19,476.37 840.22,470.97 846.26,470.27 852.29,454.18 858.32,454.42 864.36,458.86 870.39,453.83 876.42,454.92 882.46,452.55 888.49,456.73 894.53,460.72 900.56,465.59 906.59,464.29 912.63,472.42 918.66,493.15 924.69,497.78 930.73,499.59 936.76,489.03 942.79,501.76 948.83,492.67 954.86,502.94 960.89,507.83 966.93,498.12 972.96,491.66 978.99,495.82 985.03,494.41 991.06,491.66 997.09,500.83 1003.13,510.91 1009.16,519.22 1015.20,512.01 1021.23,503.03 1027.26,517.75 1033.30,525.30 1039.33,529.00 1045.36,523.38 1051.40,525.41 1057.43,537.52 1063.46,552.30 1069.50,556.14 1075.53,551.64 1081.56,553.71 1087.60,548.08 1093.63,559.66 1099.66,561.52 1105.70,561.52 1111.73,570.80 1117.77,575.41 1123.80,567.25 1129.83,568.72 1135.87,566.98 1141.90,579.88 1147.93,583.08 1153.97,592.09 1160.00,584.59" fill="none" stroke="steelblue" stroke-width="2" />
  <circle cx="176.54" cy="153.84" r="6" fill="maroon" stroke="black" stroke-width="1"/>
<line x1="176.54" y1="153.84" x2="369.61" y2="249.44" stroke="maroon" stroke-width="2"/>
<circle cx="369.61" cy="249.44" r="6" fill="white" stroke="maroon" stroke-width="2"/>
<circle cx="375.64" cy="250.39" r="6" fill="maroon" stroke="black" stroke-width="1"/>
<line x1="375.64" y1="250.39" x2="502.35" y2="345.98" stroke="maroon" stroke-width="2"/>
<circle cx="502.35" cy="345.98" r="6" fill="white" stroke="maroon" stroke-width="2"/>
<circle cx="508.38" cy="354.08" r="6" fill="maroon" stroke="black" stroke-width="1"/>
<line x1="508.38" y1="354.08" x2="713.52" y2="449.68" stroke="maroon" stroke-width="2"/>
<circle cx="713.52" cy="449.68" r="6" fill="white" stroke="maroon" stroke-width="2"/>
<circle cx="719.55" cy="438.21" r="6" fill="maroon" stroke="black" stroke-width="1"/>
<line x1="719.55" y1="438.21" x2="1057.43" y2="533.81" stroke="maroon" stroke-width="2"/>
<circle cx="1057.43" cy="533.81" r="6" fill="white" stroke="maroon" stroke-width="2"/>
<circle cx="1063.46" cy="552.30" r="6" fill="maroon" stroke="black" stroke-width="1"/>
<line x1="1063.46" y1="552.30" x2="1160.00" y2="584.59" stroke="maroon" stroke-width="2"/>
<circle cx="1160.00" cy="584.59" r="6" fill="white" stroke="maroon" stroke-width="2"/>
  <text x="80" y="640" font-size="16" fill="black">
    Session start: 2025-10-02 09:30:00-04:00
  </text>
  <text x="80" y="665" font-size="16" fill="black">
    Trades: 5 | Profit: 86.75
  </text>
</svg>
