<?xml version="1.0" encoding="UTF-8"?>
<svg xmlns="http://www.w3.org/2000/svg" width="1200" height="700" viewBox="0 0 1200 700">
  <rect x="0" y="0" width="1200" height="700" fill="white" />
  <rect x="80" y="60" width="1080" height="560" fill="none" stroke="black" />
  <line x1="80" y1="565.01" x2="1160" y2="565.01" stroke="forestgreen" stroke-width="1"/>
<line x1="80" y1="594.55" x2="1160" y2="594.55" stroke="firebrick" stroke-width="1"/>

  <polyline points="80.00,583.84 86.03,581.18 92.07,584.10 98.10,582.07 104.13,579.82 110.17,585.05 116.20,583.72 122.23,583.61 128.27,578.72 134.30,576.72 140.34,572.73 146.37,583.46 152.40,575.43 158.44,577.43 164.47,568.82 170.50,565.76 176.54,520.45 182.57,516.82 188.60,513.63 194.64,504.66 200.67,509.93 206.70,499.07 212.74,492.80 218.77,502.77 224.80,502.02 230.84,490.25 236.87,501.43 242.91,504.87 248.94,499.44 254.97,491.35 261.01,499.04 267.04,492.59 273.07,473.42 279.11,473.11 285.14,477.55 291.17,472.83 297.21,471.27 303.24,476.51 309.27,482.55 315.31,464.73 321.34,442.64 327.37,439.36 333.41,451.26 339.44,460.18 345.47,475.43 351.51,472.11 357.54,472.65 363.58,475.09 369.61,481.30 375.64,475.30 381.68,467.03 387.71,467.35 393.74,469.27 399.78,466.59 405.81,463.81 411.84,452.57 417.88,449.32 423.91,437.88 429.94,426.11 435.98,416.55 442.01,428.70 448.04,415.31 454.08,413.48 460.11,404.14 466.15,405.28 472.18,418.28 478.21,424.88 484.25,429.92 490.28,423.56 496.31,417.87 502.35,417.97 508.38,418.05 514.41,399.70 520.45,400.93 526.48,392.47 532.51,372.42 538.55,380.15 544.58,377.67 550.61,361.00 556.65,345.35 562.68,352.75 568.72,364.06 574.75,353.84 580.78,343.61 586.82,326.71 592.85,339.86 598.88,320.17 604.92,322.73 610.95,320.47 616.98,317.51 623.02,307.00 629.05,313.31 635.08,313.81 641.12,307.19 647.15,301.30 653.18,303.89 659.22,312.91 665.25,308.55 671.28,314.49 677.32,298.75 683.35,286.97 689.39,276.10 695.42,250.27 701.45,253.99 707.49,246.15 713.52,230.01 719.55,221.85 725.59,220.82 731.62,212.91 737.65,214.26 743.69,215.12 749.72,221.53 755.75,221.19 761.79,220.18 767.82,220.63 773.85,215.31 779.89,212.08 785.92,201.67 791.96,200.24 797.99,187.50 804.02,191.30 810.06,186.90 816.09,190.24 822.12,190.74 828.16,181.45 834.19,186.23 840.22,183.73 846.26,177.00 852.29,173.34 858.32,179.22 864.36,174.93 870.39,171.69 876.42,164.19 882.46,157.99 888.49,164.71 894.53,163.70 900.56,161.66 906.59,157.72 912.63,157.39 918.66,153.35 924.69,153.98 930.73,161.25 936.76,153.29 942.79,139.19 948.83,124.50 954.86,126.37 960.89,117.62 966.93,126.57 972.96,133.82 978.99,148.15 985.03,150.93 991.06,150.17 997.09,152.12 1003.13,140.62 1009.16,137.51 1015.20,148.02 1021.23,141.88 1027.26,137.16 1033.30,130.46 1039.33,133.10 1045.36,136.56 1051.40,153.34 1057.43,152.19 1063.46,157.33 1069.50,161.32 1075.53,171.49 1081.56,172.43 1087.60,181.00 1093.63,178.54 1099.66,168.75 1105.70,169.08 1111.73,138.98 1117.77,127.90 1123.80,109.43 1129.83,114.26 1135.87,105.43 1141.90,106.27 1147.93,89.05 1153.97,89.44 1160.00,96.83" fill="none" stroke="steelblue" stroke-width="2" />
  <circle cx="176.54" cy="520.45" r="6" fill="green" stroke="black" stroke-width="1"/>
<line x1="176.54" y1="520.45" x2="429.94" y2="422.73" stroke="green" stroke-width="2"/>
<circle cx="429.94" cy="422.73" r="6" fill="white" stroke="green" stroke-width="2"/>
<circle cx="435.98" cy="416.55" r="6" fill="green" stroke="black" stroke-width="1"/>
<line x1="435.98" y1="416.55" x2="598.88" y2="318.84" stroke="green" stroke-width="2"/>
<circle cx="598.88" cy="318.84" r="6" fill="white" stroke="green" stroke-width="2"/>
<circle cx="604.92" cy="322.73" r="6" fill="green" stroke="black" stroke-width="1"/>
<line x1="604.92" y1="322.73" x2="719.55" y2="225.01" stroke="green" stroke-width="2"/>
<circle cx="719.55" cy="225.01" r="6" fill="white" stroke="green" stroke-width="2"/>
<circle cx="725.59" cy="220.82" r="6" fill="green" stroke="black" stroke-width="1"/>
<line x1="725.59" y1="220.82" x2="948.83" y2="123.10" stroke="green" stroke-width="2"/>
<circle cx="948.83" cy="123.10" r="6" fill="white" stroke="green" stroke-width="2"/>
<circle cx="954.86" cy="126.37" r="6" fill="green" stroke="black" stroke-width="1"/>
<line x1="954.86" y1="126.37" x2="1087.60" y2="187.23" stroke="green" stroke-width="2"/>
<circle cx="1087.60" cy="187.23" r="6" fill="white" stroke="green" stroke-width="2"/>
<circle cx="1093.63" cy="178.54" r="6" fill="green" stroke="black" stroke-width="1"/>
<line x1="1093.63" y1="178.54" x2="1160.00" y2="96.83" stroke="green" stroke-width="2"/>
<circle cx="1160.00" cy="96.83" r="6" fill="white" stroke="green" stroke-width="2"/>
  <text x="80" y="640" font-size="16" fill="black">
    Session start: 2025-10-07 09:30:00-04:00
  </text>
  <text x="80" y="665" font-size="16" fill="black">
    Trades: 6 | Profit: 84.27
  </text>
</svg>
