<?xml version="1.0" encoding="UTF-8"?>
<svg xmlns="http://www.w3.org/2000/svg" width="1200" height="700" viewBox="0 0 1200 700">
  <rect x="0" y="0" width="1200" height="700" fill="white" />
  <rect x="80" y="60" width="1080" height="560" fill="none" stroke="black" />
  <line x1="80" y1="85.45" x2="1160" y2="85.45" stroke="forestgreen" stroke-width="1"/>
<line x1="80" y1="109.76" x2="1160" y2="109.76" stroke="firebrick" stroke-width="1"/>

  <polyline points="80.00,87.58 86.03,90.00 92.07,91.77 98.10,93.41 104.13,96.46 110.17,95.99 116.20,97.30 122.23,97.59 128.27,101.99 134.30,95.09 140.34,99.31 146.37,96.71 152.40,98.67 158.44,107.63 164.47,106.68 170.50,107.50 176.54,138.44 182.57,132.34 188.60,137.85 194.64,143.15 200.67,143.70 206.70,146.42 212.74,158.18 218.77,164.89 224.80,165.03 230.84,165.61 236.87,167.71 242.91,158.86 248.94,152.90 254.97,161.03 261.01,167.58 267.04,169.15 273.07,182.77 279.11,191.13 285.14,206.14 291.17,194.83 297.21,206.02 303.24,196.69 309.27,209.49 315.31,212.53 321.34,216.09 327.37,217.40 333.41,219.45 339.44,227.94 345.47,235.55 351.51,236.70 357.54,227.43 363.58,227.43 369.61,224.42 375.64,224.88 381.68,227.21 387.71,232.28 393.74,222.56 399.78,227.22 405.81,234.04 411.84,232.46 417.88,225.71 423.91,225.97 429.94,223.94 435.98,228.17 442.01,226.87 448.04,220.08 454.08,229.04 460.11,237.82 466.15,246.42 472.18,239.58 478.21,236.87 484.25,246.27 490.28,234.34 496.31,236.19 502.35,246.55 508.38,234.74 514.41,234.28 520.45,237.77 526.48,239.79 532.51,235.17 538.55,245.86 544.58,251.53 550.61,259.11 556.65,262.07 562.68,267.93 568.72,266.12 574.75,263.92 580.78,270.69 586.82,269.99 592.85,274.98 598.88,282.26 604.92,293.80 610.95,301.66 616.98,305.45 623.02,317.92 629.05,322.00 635.08,324.56 641.12,335.79 647.15,344.38 653.18,361.92 659.22,366.42 665.25,375.21 671.28,383.51 677.32,380.56 683.35,382.00 689.39,383.58 695.42,393.07 701.45,391.42 707.49,391.94 713.52,386.21 719.55,395.14 725.59,401.39 731.62,407.51 737.65,414.18 743.69,410.92 749.72,401.90 755.75,417.60 761.79,421.37 767.82,421.88 773.85,422.22 779.89,422.85 785.92,420.49 791.96,424.73 797.99,439.69 804.02,432.23 810.06,423.04 816.09,431.47 822.12,449.65 828.16,443.17 834.19,443.50 840.22,446.03 846.26,454.90 852.29,467.64 858.32,471.74 864.36,476.51 870.39,464.82 876.42,464.30 882.46,457.45 888.49,453.21 894.53,459.51 900.56,455.81 906.59,459.67 912.63,460.73 918.66,449.55 924.69,455.54 930.73,454.03 936.76,454.21 942.79,451.89 948.83,459.25 954.86,460.08 960.89,482.18 966.93,490.05 972.96,500.81 978.99,503.65 985.03,511.14 991.06,505.43 997.09,505.87 1003.13,513.01 1009.16,524.20 1015.20,516.79 1021.23,526.99 1027.26,528.53 1033.30,530.82 1039.33,526.97 1045.36,523.58 1051.40,537.93 1057.43,535.22 1063.46,532.77 1069.50,533.89 1075.53,546.74 1081.56,550.65 1087.60,550.18 1093.63,552.05 1099.66,547.04 1105.70,548.18 1111.73,561.19 1117.77,570.28 1123.80,575.67 1129.83,574.85 1135.87,577.45 1141.90,576.31 1147.93,582.72 1153.97,589.72 1160.00,589.34" fill="none" stroke="steelblue" stroke-width="2" />
  <circle cx="176.54" cy="138.44" r="6" fill="maroon" stroke="black" stroke-width="1"/>
<line x1="176.54" y1="138.44" x2="327.37" y2="219.70" stroke="maroon" stroke-width="2"/>
<circle cx="327.37" cy="219.70" r="6" fill="white" stroke="maroon" stroke-width="2"/>
<circle cx="333.41" cy="219.45" r="6" fill="maroon" stroke="black" stroke-width="1"/>
<line x1="333.41" y1="219.45" x2="610.95" y2="300.70" stroke="maroon" stroke-width="2"/>
<circle cx="610.95" cy="300.70" r="6" fill="white" stroke="maroon" stroke-width="2"/>
<circle cx="616.98" cy="305.45" r="6" fill="maroon" stroke="black" stroke-width="1"/>
<line x1="616.98" y1="305.45" x2="695.42" y2="386.70" stroke="maroon" stroke-width="2"/>
<circle cx="695.42" cy="386.70" r="6" fill="white" stroke="maroon" stroke-width="2"/>
<circle cx="701.45" cy="391.42" r="6" fill="maroon" stroke="black" stroke-width="1"/>
<line x1="701.45" y1="391.42" x2="852.29" y2="472.67" stroke="maroon" stroke-width="2"/>
<circle cx="852.29" cy="472.67" r="6" fill="white" stroke="maroon" stroke-width="2"/>
<circle cx="858.32" cy="471.74" r="6" fill="maroon" stroke="black" stroke-width="1"/>
<line x1="858.32" y1="471.74" x2="1081.56" y2="552.99" stroke="maroon" stroke-width="2"/>
<circle cx="1081.56" cy="552.99" r="6" fill="white" stroke="maroon" stroke-width="2"/>
<circle cx="1087.60" cy="550.18" r="6" fill="maroon" stroke="black" stroke-width="1"/>
<line x1="1087.60" y1="550.18" x2="1160.00" y2="589.34" stroke="maroon" stroke-width="2"/>
<circle cx="1160.00" cy="589.34" r="6" fill="white" stroke="maroon" stroke-width="2"/>
  <text x="80" y="640" font-size="16" fill="black">
    Session start: 2025-10-08 09:30:00-04:00
  </text>
  <text x="80" y="665" font-size="16" fill="black">
    Trades: 6 | Profit: 109.64
  </text>
</svg>
