<?xml version="1.0" encoding="UTF-8"?>
<svg xmlns="http://www.w3.org/2000/svg" width="1200" height="700" viewBox="0 0 1200 700">
  <rect x="0" y="0" width="1200" height="700" fill="white" />
  <rect x="80" y="60" width="1080" height="560" fill="none" stroke="black" />
  <line x1="80" y1="531.08" x2="1160" y2="531.08" stroke="forestgreen" stroke-width="1"/>
<line x1="80" y1="583.40" x2="1160" y2="583.40" stroke="firebrick" stroke-width="1"/>

  <polyline points="80.00,571.27 86.03,567.17 92.07,554.02 98.10,546.27 104.13,545.70 110.17,538.14 116.20,546.33 122.23,556.55 128.27,557.45 134.30,554.44 140.34,561.91 146.37,571.97 152.40,574.89 158.44,574.58 164.47,581.91 170.50,591.47 176.54,536.16 182.57,523.87 188.60,523.50 194.64,527.38 200.67,509.06 206.70,495.83 212.74,492.37 218.77,482.69 224.80,477.24 230.84,472.01 236.87,481.71 242.91,485.73 248.94,486.81 254.97,479.60 261.01,463.66 267.04,465.23 273.07,465.24 279.11,465.42 285.14,459.70 291.17,466.35 297.21,469.42 303.24,473.86 309.27,465.82 315.31,463.13 321.34,459.92 327.37,465.51 333.41,463.20 339.44,461.53 345.47,453.96 351.51,430.34 357.54,434.11 363.58,422.80 369.61,414.42 375.64,413.54 381.68,421.45 387.71,404.75 393.74,402.78 399.78,400.88 405.81,396.41 411.84,384.96 417.88,381.55 423.91,361.11 429.94,360.40 435.98,337.45 442.01,326.14 448.04,318.19 454.08,310.58 460.11,305.85 466.15,305.69 472.18,304.39 478.21,307.08 484.25,303.02 490.28,306.84 496.31,311.55 502.35,301.42 508.38,299.03 514.41,298.57 520.45,294.94 526.48,271.23 532.51,273.87 538.55,270.29 544.58,259.48 550.61,276.04 556.65,274.01 562.68,280.16 568.72,281.88 574.75,290.94 580.78,297.25 586.82,294.55 592.85,314.83 598.88,316.62 604.92,304.48 610.95,312.28 616.98,312.54 623.02,323.14 629.05,321.72 635.08,311.30 641.12,308.04 647.15,309.48 653.18,310.58 659.22,303.69 665.25,294.66 671.28,292.00 677.32,299.80 683.35,312.01 689.39,311.02 695.42,304.33 701.45,300.18 707.49,279.70 713.52,279.22 719.55,270.17 725.59,264.62 731.62,261.10 737.65,262.39 743.69,268.65 749.72,265.62 755.75,263.06 761.79,270.68 767.82,272.93 773.85,277.99 779.89,281.07 785.92,288.95 791.96,273.25 797.99,266.76 804.02,265.27 810.06,248.26 816.09,250.51 822.12,261.46 828.16,268.06 834.19,267.37 840.22,272.29 846.26,274.24 852.29,280.87 858.32,286.57 864.36,281.05 870.39,285.15 876.42,289.64 882.46,287.61 888.49,272.80 894.53,274.38 900.56,263.98 906.59,255.45 912.63,236.29 918.66,229.17 924.69,221.91 930.73,218.71 936.76,214.05 942.79,199.34 948.83,198.76 954.86,203.79 960.89,203.22 966.93,193.68 972.96,185.65 978.99,176.05 985.03,171.10 991.06,185.62 997.09,191.15 1003.13,187.89 1009.16,182.81 1015.20,174.83 1021.23,176.91 1027.26,182.05 1033.30,174.07 1039.33,176.62 1045.36,163.73 1051.40,169.53 1057.43,169.15 1063.46,161.58 1069.50,164.34 1075.53,166.21 1081.56,162.98 1087.60,164.17 1093.63,153.72 1099.66,157.39 1105.70,152.81 1111.73,150.15 1117.77,150.52 1123.80,137.15 1129.83,137.99 1135.87,114.05 1141.90,103.45 1147.93,94.00 1153.97,87.12 1160.00,86.61" fill="none" stroke="steelblue" stroke-width="2" />
  <circle cx="176.54" cy="536.16" r="6" fill="maroon" stroke="black" stroke-width="1"/>
<line x1="176.54" y1="536.16" x2="188.60" y2="523.67" stroke="maroon" stroke-width="2"/>
<circle cx="188.60" cy="523.67" r="6" fill="white" stroke="maroon" stroke-width="2"/>
<circle cx="194.64" cy="527.38" r="6" fill="green" stroke="black" stroke-width="1"/>
<line x1="194.64" y1="527.38" x2="351.51" y2="432.87" stroke="green" stroke-width="2"/>
<circle cx="351.51" cy="432.87" r="6" fill="white" stroke="green" stroke-width="2"/>
<circle cx="357.54" cy="434.11" r="6" fill="green" stroke="black" stroke-width="1"/>
<line x1="357.54" y1="434.11" x2="435.98" y2="339.60" stroke="green" stroke-width="2"/>
<circle cx="435.98" cy="339.60" r="6" fill="white" stroke="green" stroke-width="2"/>
<circle cx="442.01" cy="326.14" r="6" fill="green" stroke="black" stroke-width="1"/>
<line x1="442.01" y1="326.14" x2="918.66" y2="231.64" stroke="green" stroke-width="2"/>
<circle cx="918.66" cy="231.64" r="6" fill="white" stroke="green" stroke-width="2"/>
<circle cx="924.69" cy="221.91" r="6" fill="green" stroke="black" stroke-width="1"/>
<line x1="924.69" y1="221.91" x2="1135.87" y2="127.41" stroke="green" stroke-width="2"/>
<circle cx="1135.87" cy="127.41" r="6" fill="white" stroke="green" stroke-width="2"/>
<circle cx="1141.90" cy="103.45" r="6" fill="green" stroke="black" stroke-width="1"/>
<line x1="1141.90" y1="103.45" x2="1160.00" y2="86.61" stroke="green" stroke-width="2"/>
<circle cx="1160.00" cy="86.61" r="6" fill="white" stroke="green" stroke-width="2"/>
  <text x="80" y="640" font-size="16" fill="black">
    Session start: 2025-09-29 09:30:00-04:00
  </text>
  <text x="80" y="665" font-size="16" fill="black">
    Trades: 6 | Profit: 80.92
  </text>
</svg>
