<?xml version="1.0" encoding="UTF-8"?>
<svg xmlns="http://www.w3.org/2000/svg" width="1200" height="700" viewBox="0 0 1200 700">
  <rect x="0" y="0" width="1200" height="700" fill="white" />
  <rect x="80" y="60" width="1080" height="560" fill="none" stroke="black" />
  <line x1="80" y1="85.45" x2="1160" y2="85.45" stroke="forestgreen" stroke-width="1"/>
<line x1="80" y1="114.10" x2="1160" y2="114.10" stroke="firebrick" stroke-width="1"/>

  <polyline points="80.00,91.03 86.03,100.46 92.07,98.38 98.10,101.05 104.13,89.32 110.17,100.67 116.20,98.54 122.23,96.80 128.27,95.81 134.30,98.50 140.34,101.77 146.37,108.15 152.40,111.55 158.44,111.34 164.47,112.87 170.50,105.75 176.54,140.65 182.57,142.27 188.60,152.65 194.64,156.42 200.67,160.37 206.70,163.95 212.74,163.35 218.77,156.41 224.80,158.22 230.84,149.46 236.87,157.65 242.91,170.26 248.94,162.17 254.97,180.57 261.01,189.46 267.04,196.17 273.07,209.64 279.11,208.04 285.14,219.70 291.17,223.21 297.21,214.83 303.24,218.43 309.27,224.92 315.31,225.75 321.34,220.05 327.37,224.77 333.41,243.32 339.44,254.09 345.47,254.93 351.51,254.99 357.54,253.18 363.58,254.16 369.61,262.61 375.64,261.39 381.68,256.02 387.71,252.51 393.74,254.16 399.78,256.11 405.81,257.60 411.84,253.99 417.88,253.15 423.91,257.97 429.94,256.38 435.98,258.17 442.01,268.67 448.04,262.39 454.08,253.82 460.11,264.61 466.15,274.93 472.18,277.28 478.21,276.59 484.25,288.47 490.28,294.15 496.31,306.74 502.35,314.71 508.38,317.77 514.41,317.43 520.45,342.26 526.48,338.84 532.51,339.51 538.55,332.43 544.58,343.46 550.61,353.41 556.65,349.18 562.68,353.73 568.72,359.19 574.75,357.84 580.78,356.61 586.82,362.07 592.85,373.11 598.88,370.64 604.92,376.48 610.95,370.34 616.98,373.78 623.02,372.80 629.05,367.37 635.08,363.83 641.12,368.93 647.15,370.35 653.18,370.72 659.22,360.74 665.25,359.99 671.28,368.97 677.32,370.45 683.35,370.74 689.39,365.18 695.42,372.91 701.45,371.44 707.49,368.47 713.52,368.72 719.55,377.05 725.59,374.96 731.62,367.04 737.65,366.22 743.69,372.97 749.72,376.95 755.75,379.11 761.79,387.52 767.82,392.35 773.85,385.41 779.89,393.20 785.92,392.18 791.96,386.08 797.99,387.15 804.02,387.04 810.06,388.01 816.09,398.19 822.12,394.35 828.16,410.60 834.19,414.63 840.22,415.89 846.26,421.39 852.29,421.86 858.32,429.89 864.36,439.34 870.39,445.31 876.42,447.11 882.46,450.80 888.49,447.54 894.53,449.35 900.56,451.14 906.59,460.43 912.63,472.13 918.66,475.93 924.69,496.99 930.73,495.19 936.76,491.66 942.79,496.19 948.83,498.56 954.86,499.19 960.89,502.66 966.93,512.65 972.96,517.66 978.99,530.16 985.03,533.48 991.06,529.78 997.09,532.71 1003.13,532.45 1009.16,536.15 1015.20,547.60 1021.23,539.83 1027.26,542.00 1033.30,541.68 1039.33,531.44 1045.36,527.22 1051.40,533.71 1057.43,538.28 1063.46,534.77 1069.50,539.14 1075.53,541.88 1081.56,537.97 1087.60,536.80 1093.63,534.69 1099.66,533.65 1105.70,531.54 1111.73,558.06 1117.77,565.51 1123.80,568.40 1129.83,579.15 1135.87,577.70 1141.90,588.20 1147.93,586.64 1153.97,584.54 1160.00,589.42" fill="none" stroke="steelblue" stroke-width="2" />
  <circle cx="176.54" cy="140.65" r="6" fill="maroon" stroke="black" stroke-width="1"/>
<line x1="176.54" y1="140.65" x2="285.14" y2="217.49" stroke="maroon" stroke-width="2"/>
<circle cx="285.14" cy="217.49" r="6" fill="white" stroke="maroon" stroke-width="2"/>
<circle cx="291.17" cy="223.21" r="6" fill="maroon" stroke="black" stroke-width="1"/>
<line x1="291.17" y1="223.21" x2="496.31" y2="300.05" stroke="maroon" stroke-width="2"/>
<circle cx="496.31" cy="300.05" r="6" fill="white" stroke="maroon" stroke-width="2"/>
<circle cx="502.35" cy="314.71" r="6" fill="maroon" stroke="black" stroke-width="1"/>
<line x1="502.35" y1="314.71" x2="761.79" y2="391.54" stroke="maroon" stroke-width="2"/>
<circle cx="761.79" cy="391.54" r="6" fill="white" stroke="maroon" stroke-width="2"/>
<circle cx="767.82" cy="392.35" r="6" fill="maroon" stroke="black" stroke-width="1"/>
<line x1="767.82" y1="392.35" x2="912.63" y2="469.19" stroke="maroon" stroke-width="2"/>
<circle cx="912.63" cy="469.19" r="6" fill="white" stroke="maroon" stroke-width="2"/>
<circle cx="918.66" cy="475.93" r="6" fill="maroon" stroke="black" stroke-width="1"/>
<line x1="918.66" y1="475.93" x2="1111.73" y2="552.76" stroke="maroon" stroke-width="2"/>
<circle cx="1111.73" cy="552.76" r="6" fill="white" stroke="maroon" stroke-width="2"/>
<circle cx="1117.77" cy="565.51" r="6" fill="maroon" stroke="black" stroke-width="1"/>
<line x1="1117.77" y1="565.51" x2="1160.00" y2="589.42" stroke="maroon" stroke-width="2"/>
<circle cx="1160.00" cy="589.42" r="6" fill="white" stroke="maroon" stroke-width="2"/>
  <text x="80" y="640" font-size="16" fill="black">
    Session start: 2025-09-30 09:30:00-04:00
  </text>
  <text x="80" y="665" font-size="16" fill="black">
    Trades: 6 | Profit: 106.23
  </text>
</svg>
