<?xml version="1.0" encoding="UTF-8"?>
<svg xmlns="http://www.w3.org/2000/svg" width="1200" height="700" viewBox="0 0 1200 700">
  <rect x="0" y="0" width="1200" height="700" fill="white" />
  <rect x="80" y="60" width="1080" height="560" fill="none" stroke="black" />
  <line x1="80" y1="529.12" x2="1160" y2="529.12" stroke="forestgreen" stroke-width="1"/>
<line x1="80" y1="594.55" x2="1160" y2="594.55" stroke="firebrick" stroke-width="1"/>

  <polyline points="80.00,531.95 86.03,537.55 92.07,560.66 98.10,572.82 104.13,591.84 110.17,586.92 116.20,585.67 122.23,572.41 128.27,570.11 134.30,572.37 140.34,548.48 146.37,545.98 152.40,556.42 158.44,559.56 164.47,561.06 170.50,566.46 176.54,502.80 182.57,497.31 188.60,493.81 194.64,512.57 200.67,503.70 206.70,496.67 212.74,462.95 218.77,476.87 224.80,484.94 230.84,469.00 236.87,453.15 242.91,455.49 248.94,467.25 254.97,464.79 261.01,452.07 267.04,443.71 273.07,441.14 279.11,454.30 285.14,452.98 291.17,462.73 297.21,459.68 303.24,446.13 309.27,438.12 315.31,442.20 321.34,433.08 327.37,444.22 333.41,453.68 339.44,459.50 345.47,453.96 351.51,460.75 357.54,462.17 363.58,474.73 369.61,499.21 375.64,505.12 381.68,498.36 387.71,487.21 393.74,492.40 399.78,487.65 405.81,485.81 411.84,476.61 417.88,463.57 423.91,476.78 429.94,477.72 435.98,460.23 442.01,449.77 448.04,435.55 454.08,425.36 460.11,437.50 466.15,437.56 472.18,444.87 478.21,433.22 484.25,431.54 490.28,436.38 496.31,436.44 502.35,413.89 508.38,418.58 514.41,426.63 520.45,418.33 526.48,383.11 532.51,386.40 538.55,371.77 544.58,380.64 550.61,374.26 556.65,372.19 562.68,361.48 568.72,365.74 574.75,370.69 580.78,366.11 586.82,351.75 592.85,349.34 598.88,342.80 604.92,349.56 610.95,343.28 616.98,329.61 623.02,335.89 629.05,347.14 635.08,349.28 641.12,348.11 647.15,330.22 653.18,331.57 659.22,332.88 665.25,338.04 671.28,335.05 677.32,332.97 683.35,344.06 689.39,341.37 695.42,333.88 701.45,335.04 707.49,347.31 713.52,346.30 719.55,349.66 725.59,341.60 731.62,351.14 737.65,338.29 743.69,327.75 749.72,331.84 755.75,325.39 761.79,318.80 767.82,309.03 773.85,313.83 779.89,302.66 785.92,301.12 791.96,308.88 797.99,298.48 804.02,288.93 810.06,281.19 816.09,277.35 822.12,268.58 828.16,254.42 834.19,249.83 840.22,245.53 846.26,275.04 852.29,280.50 858.32,279.71 864.36,274.09 870.39,270.68 876.42,285.77 882.46,278.00 888.49,281.32 894.53,284.54 900.56,279.49 906.59,268.23 912.63,253.65 918.66,248.07 924.69,243.49 930.73,234.54 936.76,228.99 942.79,213.54 948.83,212.36 954.86,194.46 960.89,183.29 966.93,172.74 972.96,173.26 978.99,167.78 985.03,162.80 991.06,173.33 997.09,171.22 1003.13,156.11 1009.16,139.53 1015.20,133.15 1021.23,128.03 1027.26,125.28 1033.30,134.36 1039.33,158.35 1045.36,164.23 1051.40,163.79 1057.43,150.34 1063.46,150.36 1069.50,142.95 1075.53,148.83 1081.56,141.92 1087.60,149.63 1093.63,130.92 1099.66,134.94 1105.70,138.89 1111.73,140.23 1117.77,151.90 1123.80,133.66 1129.83,141.08 1135.87,138.86 1141.90,127.23 1147.93,124.80 1153.97,103.08 1160.00,103.08" fill="none" stroke="steelblue" stroke-width="2" />
  <circle cx="176.54" cy="502.80" r="6" fill="green" stroke="black" stroke-width="1"/>
<line x1="176.54" y1="502.80" x2="538.55" y2="377.98" stroke="green" stroke-width="2"/>
<circle cx="538.55" cy="377.98" r="6" fill="white" stroke="green" stroke-width="2"/>
<circle cx="544.58" cy="380.64" r="6" fill="green" stroke="black" stroke-width="1"/>
<line x1="544.58" y1="380.64" x2="828.16" y2="255.81" stroke="green" stroke-width="2"/>
<circle cx="828.16" cy="255.81" r="6" fill="white" stroke="green" stroke-width="2"/>
<circle cx="834.19" cy="249.83" r="6" fill="green" stroke="black" stroke-width="1"/>
<line x1="834.19" y1="249.83" x2="1015.20" y2="125.01" stroke="green" stroke-width="2"/>
<circle cx="1015.20" cy="125.01" r="6" fill="white" stroke="green" stroke-width="2"/>
<circle cx="1021.23" cy="128.03" r="6" fill="green" stroke="black" stroke-width="1"/>
<line x1="1021.23" y1="128.03" x2="1160.00" y2="103.08" stroke="green" stroke-width="2"/>
<circle cx="1160.00" cy="103.08" r="6" fill="white" stroke="green" stroke-width="2"/>
  <text x="80" y="640" font-size="16" fill="black">
    Session start: 2025-09-25 09:30:00-04:00
  </text>
  <text x="80" y="665" font-size="16" fill="black">
    Trades: 4 | Profit: 64.00
  </text>
</svg>
